<svg xmlns="http://www.w3.org/2000/svg" width="20" height="20"><g fill="#696969"><path d="M20 10c0 2.714286-.0071 3.057143-.05714 4.114286-.05 1.057143-.221428 1.792857-.464286 2.428571-.257142.657143-.6 1.214286-1.157142 1.771429-.557143.557143-1.114286.9-1.771429 1.157143-.635714.25-1.364286.421428-2.428571.464285C13.057143 19.992857 12.714286 20 10 20c-2.7142857 0-3.0571429-.007143-4.1142857-.057143-1.0571429-.05-1.7928572-.221428-2.4285714-.464286-.6571429-.257142-1.2142858-.6-1.7714286-1.157142-.5571429-.557143-.9-1.114286-1.1571429-1.771429-.24999997-.635714-.42142854-1.364286-.46428569-2.428571C.00714286 13.057143 0 12.714286 0 10c0-2.7142857.007143-3.0571429.0571429-4.1285714.05-1.0571429.22142857-1.7928572.4642857-2.4285715.2571428-.65.6-1.2142857 1.1571428-1.7571428C2.2357143 1.1285714 2.7928571.78571429 3.45.52857143c.6357143-.25 1.3642857-.42142857 2.4285714-.46428572C6.9428571.00714286 7.2857143 0 10 0c2.714286 0 3.057143.00714286 4.114286.05714286 1.057143.05 1.792857.22142857 2.428571.46428571.657143.25714286 1.214286.60000003 1.771429 1.15714283.557143.5571429.9 1.1142857 1.157143 1.7714286.25.6357143.421428 1.3642857.464285 2.4285714.05714 1.0642857.06429 1.4071429.06429 4.1214286zm-1.8 0c0-2.6714286-.01429-2.9857143-.07857-4.0357143-.042859-.9785714-.207144-1.5071428-.342859-1.8642857-.171428-.4571429-.385714-.8-.742857-1.1428571-.342857-.35-.678571-.5642858-1.142857-.7428572-.357143-.1357143-.885714-.3-1.864286-.3428571-1.05-.05-1.371428-.064286-4.035714-.064286-2.6642856 0-2.9785713.021428-4.0357141.064286-.9785715.0428571-1.5071429.2071428-1.8642858.3428571-.4571428.1714286-.8.3857143-1.1428571.7428572C2.6 3.3 2.3857143 3.6357143 2.2071429 4.1c-.1357143.3571429-.3.8857143-.3428572 1.8642857-.05 1.05-.064286 1.3642857-.064286 4.0357143 0 2.671429.014286 2.985714.078571 4.035714.042857.978572.2071429 1.507143.3428572 1.864286.1714285.457143.3857143.8.7428571 1.142857.3428572.35.6785714.564286 1.1428572.742857.3571428.135715.8857142.3 1.8642857.342857 1.05.05 1.3714285.06429 4.0357141.06429 2.664286 0 2.978571-.02143 4.035714-.06429.978572-.04286 1.507143-.207142 1.864286-.342857.457143-.171428.8-.385714 1.142857-.742857.35-.342857.564286-.678571.742857-1.142857.135714-.357143.3-.885714.342857-1.864286.05-1.05.06429-1.364285.06429-4.035714z"/><path d="M15.135714 10c0 2.835714-2.3 5.135714-5.135714 5.135714-2.8357143 0-5.1357143-2.3-5.1357143-5.135714 0-2.8357143 2.3-5.1357143 5.1357143-5.1357143 2.835714 0 5.135714 2.3 5.135714 5.1357143zm-1.807143 0c0-1.8357143-1.492857-3.3285714-3.328571-3.3285714-1.8357143 0-3.3285714 1.4928571-3.3285714 3.3285714 0 1.835714 1.4928571 3.328571 3.3285714 3.328571 1.835714 0 3.328571-1.492857 3.328571-3.328571zm3.207143-5.3357143c0-.6642857-.535714-1.2-1.2-1.2-.664285 0-1.2.5357143-1.2 1.2s.535715 1.2 1.2 1.2c.664286 0 1.2-.5428571 1.2-1.2z"/></g></svg>