<svg xmlns="http://www.w3.org/2000/svg" width="23.75" height="19" viewBox="0 0 23.75 18.05"><path fill="#696969" d="M23.750001 1.747999c-.874133.381476-1.812066.6401887-2.797537.7556903 1.006233-.5934455 1.77648-1.5347332 2.141539-2.6529041-.94387.5495686-1.985728.948626-3.095848 1.1649525C19.109197.08175 17.84474-.5 16.442246-.5c-2.690662 0-4.872289 2.1486264-4.872289 4.7971351 0 .3756284.04304.7425043.126162 1.0933277C7.647514 5.1901889 4.057494 3.2798274 1.654742.3769631c-.42001.7074563-.658947 1.5317901-.658947 2.4117344 0 1.6648347.860784 3.1337909 2.166803 3.9932109-.798459-.026296-1.549418-.242622-2.206852-.6021979v.059929c0 2.3240195 1.680005 4.2636195 3.907619 4.7050625-.408136.108164-.838508.168093-1.283744.168093-.31461 0-.618859-.03069-.917171-.08917.620334 1.907457 2.419089 3.294545 4.550267 3.332574-1.666655 1.286264-3.768145 2.050707-6.050671 2.050707-.393273 0-.780647-.02339-1.162045-.06578C2.156404 17.704866 4.716479 18.5 7.467991 18.5c8.962458 0 13.861486-7.311185 13.861486-13.6518057l-.016338-.6211933c.957219-.6724084 1.785327-1.5172283 2.436862-2.479002z"/></svg>