<svg xmlns="http://www.w3.org/2000/svg" width="30.738281" height="18" viewBox="0 0 30.738281 16.2"><path fill="#696969" d="M29.964844 17h-3.949219c-1.289063 0-1.441406-.9375-3.808594-3.1875-1.992187-1.96875-2.835937-2.121094-3.328125-2.121094-.421875 0-.714844.316407-.714844 1.066407v3.011718C18.164062 16.648437 17.648437 17 15.5625 17c-3.433594 0-7.242188-2.121094-10.148438-6.035156C1.101562 5.140625 0 .7929688 0-.1445313 0-.6484375.375-1 .890625-1h3.503906c.914063 0 1.265625.2695312 1.582031 1.2304688C7.59375 4.953125 10.464844 9.113281 11.671875 9.113281c.457031 0 .503906-.375.503906-1.347656V2.9726562c0-2.3320312-1.3125-2.5195312-1.3125-3.3867187 0-.3398438.269531-.5859375.703125-.5859375h5.625c.75 0 .855469.2695312.855469 1.1835938v6.515625c0 .7382812.152344 1.0195312.492187 1.0195312.410157 0 .785157-.2460937 1.523438-1.078125C22.371094 4.0976562 24.28125.0429688 24.28125.0429688c.234375-.5039063.527344-.8554688 1.335937-.8554688h3.515625c.691407 0 .996094.375.855469 1.0429688-.398437 1.8867187-4.453125 7.59375-4.453125 7.59375-.375.5859372-.539062.9140622 0 1.4765622.375.480469 1.558594 1.523438 2.285156 2.496094 1.769532 1.875 2.917969 3.457031 2.917969 4.347656 0 .667969-.375.855469-.773437.855469z"/></svg>