<svg xmlns="http://www.w3.org/2000/svg" width="28.387096" height="20"><path fill="#696969" d="M11.354819 14.285681V5.7140841l7.37478 4.2860339zM27.793795 3.1228025C27.467361 1.8937193 26.505586.92545773 25.284206.5969026 23.07044 0 14.193412 0 14.193412 0S5.3166167 0 3.1028508.5969026C1.8814707.92545773.9196953 1.8937193.59326179 3.1228025-.00002 5.3511918-.00002 9.9998824-.00002 9.9998824s0 4.6489256.59328179 6.8770796c.32643351 1.229083 1.28820891 2.19758 2.50958901 2.5259C5.3166167 20 14.193412 20 14.193412 20s8.877028 0 11.090794-.597138c1.22138-.32832 2.183155-1.296817 2.509589-2.5259.593282-2.228154.593282-6.8770796.593282-6.8770796s0-4.6486906-.593282-6.8770799z"/></svg>